<?xml version="1.0" standalone="no"?><!DOCTYPE svg PUBLIC "-//W3C//DTD SVG 1.1//EN" "http://www.w3.org/Graphics/SVG/1.1/DTD/svg11.dtd"><svg t="1681229827069" class="icon" viewBox="0 0 1024 1024" version="1.1" xmlns="http://www.w3.org/2000/svg" p-id="777" xmlns:xlink="http://www.w3.org/1999/xlink" width="200" height="200"><path d="M573.586667 704l-154.793334 268.106667A470.42 470.42 0 0 1 83.62 704z m318.86 82.953333A470.426667 470.426667 0 0 0 957.08 362.666667H647.486667zM131.553333 237.046667a470.426667 470.426667 0 0 0-64.666666 424.286666h309.626666zM694.666667 79.56a465.633333 465.633333 0 0 0-89.486667-27.666667L450.413333 320h489.966667A470.966667 470.966667 0 0 0 694.666667 79.56zM709.066667 554.666667l-244.946667 424.266666A477.6 477.6 0 0 0 512 981.333333a467.926667 467.926667 0 0 0 331.866667-137.466666q10.333333-10.32 19.94-21.186667zM314.933333 469.333333L559.88 45.066667A477.6 477.6 0 0 0 512 42.666667a467.926667 467.926667 0 0 0-331.866667 137.466666q-10.326667 10.32-19.94 21.2z" fill="#355583" p-id="778"></path></svg>